<?xml version="1.0" encoding="iso-8859-1"?>
<!-- Generator: Adobe Illustrator 16.0.0, SVG Export Plug-In . SVG Version: 6.00 Build 0)  -->
<!DOCTYPE svg PUBLIC "-//W3C//DTD SVG 1.1//EN" "http://www.w3.org/Graphics/SVG/1.1/DTD/svg11.dtd">
<svg version="1.1" xmlns="http://www.w3.org/2000/svg" xmlns:xlink="http://www.w3.org/1999/xlink" x="0px" y="0px" width="64px"
	 height="64px" viewBox="0 0 64 64" style="enable-background:new 0 0 64 64;" xml:space="preserve">
<g id="Layer_24">
	<g>
		<path d="M63.412,54.584l-5.998-5.998c-0.78-0.781-2.048-0.781-2.828,0c-0.781,0.78-0.781,2.047,0,2.828L57.172,54H10V6.828
			l2.586,2.586C12.977,9.805,13.488,10,14,10s1.023-0.195,1.414-0.586c0.781-0.781,0.781-2.048,0-2.828L9.416,0.587
			C9.053,0.225,8.553,0,8,0C7.511,0,7.068,0.182,6.721,0.475C6.688,0.494,6.646,0.525,6.59,0.582
			C6.588,0.584,6.586,0.585,6.584,0.587L0.586,6.586c-0.781,0.78-0.781,2.047,0,2.828C0.977,9.805,1.488,10,2,10
			s1.023-0.195,1.414-0.586L6,6.828V56c0,1.104,0.896,2,2,2h49.172l-2.586,2.586c-0.781,0.78-0.781,2.047,0,2.828
			C54.977,63.805,55.488,64,56,64s1.023-0.195,1.414-0.586c0,0,6.006-6.009,6.01-6.013c0.096-0.097,0.164-0.179,0.207-0.251
			C63.861,56.825,64,56.43,64,56C64,55.447,63.775,54.946,63.412,54.584z"/>
		<path d="M28,25c0.512,0,1.023-0.195,1.414-0.586L32,21.828V41c0,1.104,0.896,2,2,2s2-0.896,2-2V16.998c0-1.104-0.896-2-2-2
			c-0.488,0-0.929,0.182-1.275,0.473c-0.041,0.025-0.086,0.061-0.139,0.113l-6,6.002c-0.781,0.781-0.781,2.047,0,2.828
			C26.977,24.805,27.488,25,28,25z"/>
		<path d="M45.173,13.721C42.748,15.68,40,17.9,40,21c0,1.104,0.896,2,2,2h8c1.104,0,2-0.896,2-2c0-1.105-0.896-2-2-2h-4.793
			c0.735-0.756,1.682-1.523,2.48-2.168c2.08-1.681,4.028-3.281,4.266-5.409C51.982,11.286,52,11.145,52,11c0-3.309-2.691-6-6-6
			s-6,2.691-6,6c0,1.104,0.896,2,2,2s2-0.896,2-2s0.896-2,2-2c1.094,0,1.981,0.882,1.997,1.971
			C47.846,11.561,46.176,12.91,45.173,13.721z"/>
	</g>
</g>
<g id="Layer_1">
</g>
</svg>
