<?xml version="1.0" encoding="iso-8859-1"?>
<!-- Generator: Adobe Illustrator 16.0.0, SVG Export Plug-In . SVG Version: 6.00 Build 0)  -->
<!DOCTYPE svg PUBLIC "-//W3C//DTD SVG 1.1//EN" "http://www.w3.org/Graphics/SVG/1.1/DTD/svg11.dtd">
<svg version="1.1" xmlns="http://www.w3.org/2000/svg" xmlns:xlink="http://www.w3.org/1999/xlink" x="0px" y="0px" width="38px"
	 height="64px" viewBox="0 0 38 64" style="enable-background:new 0 0 38 64;" xml:space="preserve">
<g id="Layer_3">
	<path d="M36,8h-2V2c0-1.104-0.896-2-2-2h-8c-1.104,0-2,0.896-2,2v6h-1.527L8.895,2.211c-0.618-0.309-1.35-0.276-1.938,0.083
		C2.666,4.919,0,10.171,0,16s2.666,11.081,6.957,13.706C7.275,29.901,7.637,30,8,30c0.306,0,0.612-0.07,0.895-0.211L20.473,24H22v34
		c0,3.309,2.691,6,6,6s6-2.691,6-6V24h2c1.104,0,2-0.896,2-2V10C38,8.896,37.104,8,36,8z M26,4h4v4h-4V4z M8.17,25.679
		C5.609,23.62,4,19.947,4,16s1.609-7.62,4.17-9.679l2.142,1.07C8.227,9.615,7,12.68,7,16s1.227,6.385,3.312,8.608L8.17,25.679z
		 M30,58c0,1.103-0.896,2-2,2s-2-0.897-2-2V24h4V58z M34,20H20c-0.311,0-0.617,0.072-0.895,0.211l-4.977,2.488
		C12.203,21.227,11,18.703,11,16s1.203-5.227,3.129-6.699l4.977,2.488C19.383,11.928,19.689,12,20,12h14V20z"/>
</g>
<g id="Layer_1">
</g>
</svg>
