<?xml version="1.0" encoding="iso-8859-1"?>
<!-- Generator: Adobe Illustrator 16.0.0, SVG Export Plug-In . SVG Version: 6.00 Build 0)  -->
<!DOCTYPE svg PUBLIC "-//W3C//DTD SVG 1.1//EN" "http://www.w3.org/Graphics/SVG/1.1/DTD/svg11.dtd">
<svg version="1.1" xmlns="http://www.w3.org/2000/svg" xmlns:xlink="http://www.w3.org/1999/xlink" x="0px" y="0px" width="64.02px"
	 height="60px" viewBox="0 0 64.02 60" style="enable-background:new 0 0 64.02 60;" xml:space="preserve">
<g id="Layer_53">
	<g>
		<path d="M62.001,56H2c-1.104,0-2,0.896-2,2s0.896,2,2,2h60c1.104,0,2-0.896,2-2S63.105,56,62.001,56z"/>
		<path d="M2,22h10v28H7c-1.104,0-2,0.896-2,2s0.896,2,2,2h50c1.104,0,2-0.896,2-2s-0.896-2-2-2h-5V22h10
			c0.007-0.001,0.014-0.001,0.02,0c1.105,0,2-0.896,2-2c0-0.802-0.472-1.494-1.154-1.812L33.03,0.285
			c-0.633-0.381-1.426-0.381-2.059,0l-30,18c-0.771,0.462-1.139,1.383-0.898,2.249S1.102,22,2,22z M16,22h8v28h-8V22z M36.001,22v28
			h-8V22H36.001z M48.001,50h-8V22h8V50z M32,4.332L54.78,18H9.221L32,4.332z"/>
		<circle cx="32" cy="12" r="3"/>
	</g>
</g>
<g id="Layer_1">
</g>
</svg>
