<?xml version="1.0" encoding="iso-8859-1"?>
<!-- Generator: Adobe Illustrator 16.0.0, SVG Export Plug-In . SVG Version: 6.00 Build 0)  -->
<!DOCTYPE svg PUBLIC "-//W3C//DTD SVG 1.1//EN" "http://www.w3.org/Graphics/SVG/1.1/DTD/svg11.dtd">
<svg version="1.1" xmlns="http://www.w3.org/2000/svg" xmlns:xlink="http://www.w3.org/1999/xlink" x="0px" y="0px" width="44px"
	 height="64px" viewBox="0 0 44 64" style="enable-background:new 0 0 44 64;" xml:space="preserve">
<g id="Layer_20">
	<g>
		<path d="M42,8h-6V2c0-1.104-0.896-2-2-2H10C8.896,0,8,0.896,8,2v6H2c-1.104,0-2,0.896-2,2v52c0,1.104,0.896,2,2,2h40
			c1.104,0,2-0.896,2-2V10C44,8.896,43.104,8,42,8z M12,4h20v4H12V4z M40,60H4V12h6h24h6V60z"/>
		<path d="M10,16c-1.104,0-2,0.895-2,2v36c0,1.104,0.896,2,2,2s2-0.896,2-2V18C12,16.895,11.104,16,10,16z"/>
		<path d="M18,16c-1.104,0-2,0.895-2,2v36c0,1.104,0.896,2,2,2s2-0.896,2-2V18C20,16.895,19.104,16,18,16z"/>
		<path d="M32,18v36c0,1.104,0.896,2,2,2s2-0.896,2-2V18c0-1.105-0.896-2-2-2S32,16.895,32,18z"/>
		<path d="M26,16c-1.104,0-2,0.895-2,2v36c0,1.104,0.896,2,2,2s2-0.896,2-2V18C28,16.895,27.104,16,26,16z"/>
	</g>
</g>
<g id="Layer_1">
</g>
</svg>
