<?xml version="1.0" encoding="iso-8859-1"?>
<!-- Generator: Adobe Illustrator 16.0.0, SVG Export Plug-In . SVG Version: 6.00 Build 0)  -->
<!DOCTYPE svg PUBLIC "-//W3C//DTD SVG 1.1//EN" "http://www.w3.org/Graphics/SVG/1.1/DTD/svg11.dtd">
<svg version="1.1" xmlns="http://www.w3.org/2000/svg" xmlns:xlink="http://www.w3.org/1999/xlink" x="0px" y="0px" width="64px"
	 height="64px" viewBox="0 0 64 64" style="enable-background:new 0 0 64 64;" xml:space="preserve">
<g id="Layer_23">
	<path d="M55,27.208V25c0-1.105-0.896-2-2-2s-2,0.895-2,2v2.208c-1.875,0.378-3.586,1.267-5,2.542V18
		c0-7.039-5.227-12.865-12-13.841V2c0-1.105-0.896-2-2-2s-2,0.895-2,2v2.159C23.227,5.135,18,10.961,18,18v11.75
		c-1.414-1.275-3.125-2.164-5-2.542V25c0-1.105-0.896-2-2-2s-2,0.895-2,2v2.208C3.888,28.238,0,33.129,0,39v23c0,1.104,0.896,2,2,2
		h22h16h22c1.104,0,2-0.896,2-2V39C64,33.129,60.112,28.238,55,27.208z M53,31c3.256,0,6,2.553,6.778,6H46.222
		C47,33.553,49.744,31,53,31z M32,8c4.829,0,8.869,3.441,9.799,8H22.201C23.13,11.441,27.171,8,32,8z M11,31
		c3.256,0,6,2.553,6.778,6H4.222C5,33.553,7.744,31,11,31z M26,60V50c0-3.309,2.691-6,6-6s6,2.691,6,6v10H26z M60,60H42V50
		c0-5.515-4.486-10-10-10c-5.514,0-10,4.485-10,10v10H4V41h16c1.104,0,2-0.896,2-2V20h20v19c0,1.104,0.896,2,2,2h16V60z"/>
</g>
<g id="Layer_1">
</g>
</svg>
