<?xml version="1.0" encoding="iso-8859-1"?>
<!-- Generator: Adobe Illustrator 16.0.0, SVG Export Plug-In . SVG Version: 6.00 Build 0)  -->
<!DOCTYPE svg PUBLIC "-//W3C//DTD SVG 1.1//EN" "http://www.w3.org/Graphics/SVG/1.1/DTD/svg11.dtd">
<svg version="1.1" xmlns="http://www.w3.org/2000/svg" xmlns:xlink="http://www.w3.org/1999/xlink" x="0px" y="0px" width="64px"
	 height="64px" viewBox="0 0 64 64" style="enable-background:new 0 0 64 64;" xml:space="preserve">
<g id="Layer_22">
	<g>
		<path d="M32,17c-3.309,0-6,2.691-6,6s2.691,6,6,6s6-2.691,6-6S35.309,17,32,17z M32,25c-1.103,0-2-0.897-2-2c0-1.104,0.897-2,2-2
			c1.104,0,2,0.896,2,2C34,24.103,33.104,25,32,25z"/>
		<path d="M62.434,33.047L46,29.395V14c0-0.861-0.551-1.625-1.367-1.898L34,8.559V2c0-1.105-0.896-2-2-2s-2,0.895-2,2v6.559
			l-10.632,3.543C18.551,12.375,18,13.139,18,14v15.395L1.566,33.047C0.651,33.25,0,34.062,0,35v27c0,1.104,0.896,2,2,2h60
			c1.104,0,2-0.896,2-2V35C64,34.062,63.35,33.25,62.434,33.047z M14,47c0-1.104,0.897-2,2-2s2,0.896,2,2v13h-4V47z M30,47
			c0-1.104,0.897-2,2-2c1.104,0,2,0.896,2,2v13h-4V47z M46,47c0-1.104,0.896-2,2-2s2,0.896,2,2v13h-4V47z M60,60h-6V47
			c0-3.309-2.691-6-6-6s-6,2.691-6,6v13h-4V47c0-3.309-2.691-6-6-6s-6,2.691-6,6v13h-4V47c0-3.309-2.691-6-6-6s-6,2.691-6,6v13H4
			V36.604l16.434-3.652C21.349,32.748,22,31.938,22,31V15.441l10-3.334l10,3.334V31c0,0.938,0.65,1.748,1.566,1.951L60,36.604V60z"
			/>
	</g>
</g>
<g id="Layer_1">
</g>
</svg>
