<?xml version="1.0" encoding="iso-8859-1"?>
<!-- Generator: Adobe Illustrator 16.0.0, SVG Export Plug-In . SVG Version: 6.00 Build 0)  -->
<!DOCTYPE svg PUBLIC "-//W3C//DTD SVG 1.1//EN" "http://www.w3.org/Graphics/SVG/1.1/DTD/svg11.dtd">
<svg version="1.1" xmlns="http://www.w3.org/2000/svg" xmlns:xlink="http://www.w3.org/1999/xlink" x="0px" y="0px" width="58px"
	 height="64px" viewBox="0 0 58 64" style="enable-background:new 0 0 58 64;" xml:space="preserve">
<g id="Layer_5">
	<path d="M56,26h-8c-1.104,0-2,0.896-2,2s0.896,2,2,2h2v8h-2.35c-0.826-2.326-3.044-4-5.65-4H31v-4h9
		c1.037,0,1.902-0.793,1.992-1.826l2-23C43.998,5.115,44,5.058,44,5c0-2.757-2.243-5-5-5H19c-2.757,0-5,2.243-5,5
		c0,0.058,0.002,0.115,0.007,0.174l2,23C16.097,29.207,16.962,30,18,30h9v4H15.998c-2.606,0-4.823,1.674-5.65,4H8v-8h2
		c1.104,0,2-0.896,2-2s-0.896-2-2-2H2c-1.104,0-2,0.896-2,2s0.896,2,2,2h2v10c0,1.104,0.896,2,2,2h3.999L10,44.001
		C10,45.105,10.896,46,12,46h15v8h-9c-0.026,0-0.05,0.007-0.075,0.008c-0.069,0.002-0.136,0.011-0.204,0.021
		c-0.066,0.009-0.132,0.019-0.196,0.034c-0.057,0.015-0.111,0.033-0.166,0.052c-0.069,0.024-0.138,0.048-0.203,0.079
		c-0.05,0.022-0.096,0.051-0.144,0.077c-0.063,0.036-0.125,0.073-0.185,0.115c-0.047,0.034-0.09,0.072-0.134,0.11
		c-0.052,0.045-0.104,0.09-0.15,0.141c-0.042,0.045-0.079,0.093-0.117,0.142c-0.042,0.054-0.083,0.107-0.119,0.165
		c-0.032,0.051-0.059,0.104-0.086,0.158c-0.033,0.065-0.064,0.131-0.09,0.199c-0.008,0.023-0.022,0.043-0.03,0.066l-2,6
		c-0.349,1.049,0.217,2.181,1.265,2.53C15.577,63.967,15.791,64,16,64c0.837,0,1.618-0.529,1.897-1.367L19.441,58H27v4
		c0,1.104,0.896,2,2,2s2-0.896,2-2v-4h7.559l1.544,4.633C40.382,63.471,41.162,64,42,64c0.209,0,0.423-0.033,0.633-0.103
		c1.047-0.35,1.613-1.481,1.265-2.53l-2-6c-0.008-0.023-0.021-0.043-0.03-0.066c-0.025-0.068-0.057-0.133-0.089-0.198
		c-0.028-0.055-0.055-0.108-0.087-0.159c-0.035-0.058-0.076-0.11-0.117-0.163c-0.038-0.05-0.076-0.1-0.119-0.146
		c-0.046-0.049-0.096-0.092-0.146-0.137c-0.045-0.039-0.09-0.078-0.138-0.113c-0.058-0.042-0.119-0.077-0.182-0.113
		c-0.048-0.027-0.095-0.055-0.146-0.078c-0.065-0.031-0.134-0.056-0.203-0.079c-0.055-0.019-0.108-0.037-0.164-0.051
		c-0.066-0.017-0.133-0.026-0.201-0.036c-0.065-0.009-0.131-0.017-0.197-0.02C40.052,54.007,40.027,54,40,54h-9v-8h15
		c1.104,0,2-0.896,2-2v-2h4c1.104,0,2-0.896,2-2V30h2c1.104,0,2-0.896,2-2S57.104,26,56,26z M19.833,26L18.002,4.937
		C18.035,4.414,18.47,4,19,4h20c0.529,0,0.965,0.414,0.998,0.937L38.166,26H19.833z M44,42H13.999l-0.001-2c0-1.104,0.897-2,2-2H42
		c1.104,0,2,0.896,2,2V42z"/>
</g>
<g id="Layer_1">
</g>
</svg>
