<?xml version="1.0" encoding="iso-8859-1"?>
<!-- Generator: Adobe Illustrator 16.0.0, SVG Export Plug-In . SVG Version: 6.00 Build 0)  -->
<!DOCTYPE svg PUBLIC "-//W3C//DTD SVG 1.1//EN" "http://www.w3.org/Graphics/SVG/1.1/DTD/svg11.dtd">
<svg version="1.1" xmlns="http://www.w3.org/2000/svg" xmlns:xlink="http://www.w3.org/1999/xlink" x="0px" y="0px" width="58px"
	 height="64px" viewBox="0 0 58 64" style="enable-background:new 0 0 58 64;" xml:space="preserve">
<g id="Layer_21">
	<g>
		<path d="M29,33c3.309,0,6-2.691,6-6s-2.691-6-6-6s-6,2.691-6,6S25.691,33,29,33z M29,25c1.104,0,2,0.896,2,2c0,1.103-0.896,2-2,2
			c-1.103,0-2-0.897-2-2C27,25.896,27.897,25,29,25z"/>
		<path d="M56.484,35.059L46,32.438V22c0-0.67-0.334-1.293-0.891-1.664L31,10.93V7.5h1.5c1.104,0,2-0.896,2-2c0-1.105-0.896-2-2-2
			H31V2c0-1.105-0.896-2-2-2s-2,0.895-2,2v1.5h-1.5c-1.104,0-2,0.895-2,2c0,1.104,0.896,2,2,2H27v3.43l-14.109,9.406
			C12.334,20.707,12,21.33,12,22v10.438l-10.485,2.62C0.625,35.281,0,36.082,0,37v25c0,1.104,0.896,2,2,2h12h30h12
			c1.104,0,2-0.896,2-2V37C58,36.082,57.375,35.281,56.484,35.059z M4,38.561l8-1.999V60H4V38.561z M16,34V23.07l13-8.667l13,8.667
			V34v26h-7V47c0-3.309-2.691-6-6-6s-6,2.691-6,6v13h-7V34z M27,47c0-1.104,0.897-2,2-2c1.104,0,2,0.896,2,2v13h-4V47z M54,60h-8
			V36.562l8,1.999V60z"/>
	</g>
</g>
<g id="Layer_1">
</g>
</svg>
