<?xml version="1.0" encoding="iso-8859-1"?>
<!-- Generator: Adobe Illustrator 16.0.0, SVG Export Plug-In . SVG Version: 6.00 Build 0)  -->
<!DOCTYPE svg PUBLIC "-//W3C//DTD SVG 1.1//EN" "http://www.w3.org/Graphics/SVG/1.1/DTD/svg11.dtd">
<svg version="1.1" id="Layer_1" xmlns="http://www.w3.org/2000/svg" xmlns:xlink="http://www.w3.org/1999/xlink" x="0px" y="0px"
	 width="64px" height="64px" viewBox="1 0 64 64" style="enable-background:new 1 0 64 64;" xml:space="preserve">
<g id="Layer_4">
	<path d="M64.25,19.438l-10-8c-0.002,0.003-0.004,0.005-0.005,0.008C53.902,11.171,53.475,11,53,11H26.741
		c-0.092-0.158-0.197-0.308-0.328-0.435L18.561,0.75c-0.531-0.665-1.424-0.917-2.225-0.639c-0.8,0.282-1.337,1.038-1.337,1.888v9h-4
		V8c0-1.104-0.895-2-2-2h-6c-1.104,0-2,0.896-2,2v18c0,1.104,0.896,2,2,2h6c1.105,0,2-0.896,2-2v-3h4v2v35h-6c-1.104,0-2,0.896-2,2
		c0,1.104,0.896,2,2,2h24c1.104,0,2-0.896,2-2c0-1.104-0.896-2-2-2h-6V27h4c0.008,0,0.014,0,0.021,0c1.104,0,2-0.896,2-2
		c0-0.389-0.109-0.752-0.304-1.059L32.294,23H53h1v8c0,1.104,0.896,2,2,2c1.654,0,3,1.346,3,3c0,1.653-1.346,3-3,3s-3-1.347-3-3
		c0-1.104-0.895-2-2-2c-1.104,0-2,0.896-2,2c0,3.858,3.141,7,7,7s7-3.142,7-7c0-3.164-2.111-5.842-5-6.705V23h5
		c0.85,0,1.605-0.536,1.889-1.338C65.17,20.859,64.913,19.968,64.25,19.438z M6.999,24h-2V10h2V24z M18.999,7.701L20.839,10h-1.84
		V7.701z M10.999,19v-4h4v4H10.999z M22.999,60h-4v-6h4V60z M22.999,50h-4v-6h4V50z M22.999,40h-4v-6h4V40z M22.999,30h-4v-3h4V30z
		 M18.999,23v-8h5.321l3.59,8H18.999z M32.999,19h-2.5l-1.795-4h4.295V19z M42.999,19h-6v-4h6V19z M53,19h-6.001v-4h5.3l5,4H53z"/>
</g>
<g id="Layer_1_1_">
</g>
</svg>
