<?xml version="1.0" encoding="iso-8859-1"?>
<!-- Generator: Adobe Illustrator 16.0.0, SVG Export Plug-In . SVG Version: 6.00 Build 0)  -->
<!DOCTYPE svg PUBLIC "-//W3C//DTD SVG 1.1//EN" "http://www.w3.org/Graphics/SVG/1.1/DTD/svg11.dtd">
<svg version="1.1" xmlns="http://www.w3.org/2000/svg" xmlns:xlink="http://www.w3.org/1999/xlink" x="0px" y="0px"
	 width="64.007px" height="44px" viewBox="0 0 64.007 44" style="enable-background:new 0 0 64.007 44;" xml:space="preserve">
<g id="Layer_58">
	<g>
		<path d="M2.006,13.436c0.003,0,0.007,0,0.01,0h7.543c1.105,0,2-0.896,2-2c0.001-1.105-0.895-2-2-2H7.315l6.022-6.021
			c0.781-0.781,0.781-2.047-0.001-2.828c-0.78-0.781-2.046-0.781-2.827-0.002L4.008,7.086V3.883H4.007c0-1.105-0.896-2-2.001-2
			c-1.103,0-1.998,0.896-1.999,2c0,0.002,0.001,0.006,0.001,0.01v7.533c0,0.002-0.001,0.006-0.001,0.01l0,0l0,0
			C0.007,12.539,0.902,13.436,2.006,13.436z"/>
		<path d="M62.007,0.006H45.048C45.024,0.006,45.003,0,44.979,0c-1.105,0-2,0.895-2,2c0,0.002,0,0.002,0,0.004V14H31.075
			c-0.023-0.002-0.045-0.008-0.068-0.008c-0.556,0-1.057,0.227-1.42,0.592C29.225,14.947,29,15.447,29,16
			c0,0.023,0.006,0.045,0.007,0.068v10.924h-12c-1.105,0-2,0.895-2,2c0,0.002,0,0.002,0,0.004V40H2c-1.105,0-2,0.896-2,2
			c0,1.105,0.895,2,2,2c0.002,0,0.002,0,0.004,0h14.997c0.002,0,0.004,0,0.006,0c1.104,0,2-0.895,2-2V30.992
			c0,0,11.977,0.008,12,0.008c1.104,0,1.998-0.895,2-2V18h11.98c0.002,0,0.004,0,0.006,0c1.104,0,2-0.895,2-2
			c0-0.047-0.011-0.09-0.014-0.137V4.006h15.021c0.002,0,0.004,0,0.006,0c1.104,0,2-0.895,2-2
			C64.007,0.902,63.112,0.008,62.007,0.006z"/>
	</g>
</g>
<g id="Layer_1">
</g>
</svg>
