<?xml version="1.0" encoding="iso-8859-1"?>
<!-- Generator: Adobe Illustrator 16.0.0, SVG Export Plug-In . SVG Version: 6.00 Build 0)  -->
<!DOCTYPE svg PUBLIC "-//W3C//DTD SVG 1.1//EN" "http://www.w3.org/Graphics/SVG/1.1/DTD/svg11.dtd">
<svg version="1.1" xmlns="http://www.w3.org/2000/svg" xmlns:xlink="http://www.w3.org/1999/xlink" x="0px" y="0px" width="64px"
	 height="64px" viewBox="0 0 64 64" style="enable-background:new 0 0 64 64;" xml:space="preserve">
<g id="Layer_7">
	<g>
		<path d="M38,44v10c0,1.104,0.896,2,2,2h10c1.104,0,2-0.896,2-2V44c0-1.105-0.896-2-2-2H40C38.896,42,38,42.895,38,44z M42,46h6v6
			h-6V46z"/>
		<path d="M63.989,21.906c-0.004-0.089-0.014-0.176-0.029-0.264c-0.001-0.002-0.001-0.003-0.001-0.004
			c-0.062-0.337-0.202-0.662-0.44-0.941c-0.778-0.908-1.921-0.986-2.82-0.217L50,29.65V22c0-0.036-0.009-0.061-0.011-0.094
			c-0.004-0.089-0.014-0.176-0.029-0.264c-0.001-0.002-0.001-0.003-0.001-0.004c-0.062-0.337-0.202-0.662-0.44-0.941
			c-0.718-0.838-1.981-0.936-2.82-0.217L33.26,32h-1.381L29.996,1.875C29.93,0.82,29.057,0,28,0h-8c-1.057,0-1.93,0.82-1.996,1.875
			L16.121,32h-0.242L13.996,1.875C13.93,0.82,13.057,0,12,0H4C2.943,0,2.07,0.82,2.004,1.875l-2,32
			c-0.002,0.021,0.003,0.041,0.002,0.062C0.006,33.959,0,33.979,0,34v28c0,1.104,0.896,2,2,2h12h18h30c1.104,0,2-0.896,2-2V22
			C64,21.964,63.991,21.939,63.989,21.906z M30,60H16V46h14V60z M60,60H34V44c0-1.105-0.896-2-2-2H14c-1.104,0-2,0.895-2,2v16H4
			V34.062L5.879,4h4.242l1.883,30.125c0.002,0.025,0.012,0.041,0.016,0.065C12.117,35.204,12.961,36,14,36h4
			c1.04,0,1.885-0.797,1.98-1.812c0.004-0.023,0.014-0.039,0.016-0.062L21.879,4h4.242l1.883,30.125
			c0.002,0.025,0.012,0.041,0.016,0.065C28.117,35.204,28.961,36,30,36h4c0.486,0,0.927-0.182,1.273-0.471
			c0.008-0.006,0.021-0.004,0.028-0.012L46,26.348V34c0,0.035,0.009,0.06,0.011,0.094c0.004,0.088,0.014,0.176,0.029,0.263
			c0.001,0.001,0.001,0.003,0.001,0.005c0.062,0.336,0.202,0.662,0.44,0.939C46.877,35.763,47.438,36,48.001,36
			c0.46,0,0.923-0.158,1.301-0.482L60,26.348V60z"/>
	</g>
</g>
<g id="Layer_1">
</g>
</svg>
