<?xml version="1.0" encoding="iso-8859-1"?>
<!-- Generator: Adobe Illustrator 16.0.0, SVG Export Plug-In . SVG Version: 6.00 Build 0)  -->
<!DOCTYPE svg PUBLIC "-//W3C//DTD SVG 1.1//EN" "http://www.w3.org/Graphics/SVG/1.1/DTD/svg11.dtd">
<svg version="1.1" xmlns="http://www.w3.org/2000/svg" xmlns:xlink="http://www.w3.org/1999/xlink" x="0px" y="0px" width="48px"
	 height="64.002px" viewBox="0 0 48 64.002" style="enable-background:new 0 0 48 64.002;" xml:space="preserve">
<g id="Layer_13">
	<path d="M33.999,4.168V2c0-1.104-0.896-2-2-2h-16c-1.104,0-2,0.896-2,2v2H10V2c0-1.104-0.896-2-2-2H2C0.896,0,0,0.896,0,2v16
		c0,1.104,0.896,2,2,2h6c1.104,0,2-0.896,2-2v-2h3.999v2c0,1.104,0.896,2,2,2H18v38.002c0,3.309,2.691,6,6,6s6-2.691,6-6V20h1.999
		c1.104,0,2-0.896,2-2v-1.8c4.106,0.789,7.884,3.958,10.165,8.673c0.34,0.7,1.045,1.129,1.801,1.129c0.135,0,0.273-0.014,0.41-0.043
		c0.898-0.188,1.554-0.964,1.588-1.882l0.014-0.272C47.988,23.586,48,23.366,48,23.144C48,13.4,41.879,5.351,33.999,4.168z M6,16H4
		V4h2v2v8V16z M10,12V8h3.999v4H10z M17.999,14.01C17.999,14.007,18,14.003,18,14V6c0-0.003-0.001-0.007-0.001-0.01V4h12v12h-12
		V14.01z M26,58.002c0,1.103-0.896,2-2,2c-1.103,0-2-0.897-2-2V20h4V58.002z M34,12.141V8.212c3.814,0.812,7.023,3.9,8.715,8.116
		C40.16,14.045,37.156,12.58,34,12.141z"/>
</g>
<g id="Layer_1">
</g>
</svg>
