<?xml version="1.0" encoding="iso-8859-1"?>
<!-- Generator: Adobe Illustrator 16.0.0, SVG Export Plug-In . SVG Version: 6.00 Build 0)  -->
<!DOCTYPE svg PUBLIC "-//W3C//DTD SVG 1.1//EN" "http://www.w3.org/Graphics/SVG/1.1/DTD/svg11.dtd">
<svg version="1.1" xmlns="http://www.w3.org/2000/svg" xmlns:xlink="http://www.w3.org/1999/xlink" x="0px" y="0px" width="28px"
	 height="64px" viewBox="0 0 28 64" style="enable-background:new 0 0 28 64;" xml:space="preserve">
<g id="Layer_38">
	<path d="M27.302,4.48c-0.839-0.717-2.102-0.62-2.82,0.217L16,14.593V2c0-1.105-0.896-2-2-2s-2,0.895-2,2v12.593L3.519,4.697
		C2.8,3.859,1.538,3.763,0.698,4.48c-0.838,0.719-0.936,1.982-0.217,2.82l9.443,11.018C9.37,18.674,9,19.292,9,20
		c0,0.798,0.471,1.481,1.147,1.803L6.4,26.8c-0.663,0.884-0.483,2.138,0.4,2.8C7.16,29.869,7.581,30,7.999,30
		c0.608,0,1.208-0.277,1.602-0.801l2.4-3.2v28.324c-2.112,0.665-3.811,2.257-5.235,3.604C5.841,58.803,4.576,60,4,60
		c-1.104,0-2,0.896-2,2c0,1.105,0.896,2,2,2c2.168,0,3.869-1.609,5.514-3.166c0.818-0.774,1.651-1.554,2.486-2.102V62
		c0,1.104,0.896,2,2,2s2-0.896,2-2v-3.145c0.516,0.41,1.065,0.947,1.711,1.604C19.34,62.119,21.187,64,24,64c1.104,0,2-0.896,2-2
		s-0.896-2-2-2c-1.059,0-2.004-0.885-3.436-2.343c-1.211-1.233-2.648-2.692-4.564-3.329V25.999l2.399,3.2
		C18.793,29.724,19.394,30,20.001,30c0.418,0,0.839-0.131,1.198-0.4c0.884-0.662,1.063-1.916,0.4-2.8l-3.747-4.997
		C18.528,21.481,19,20.798,19,20c0-0.708-0.37-1.326-0.925-1.682l9.443-11.018C28.237,6.463,28.14,5.199,27.302,4.48z"/>
</g>
<g id="Layer_1">
</g>
</svg>
