<?xml version="1.0" encoding="iso-8859-1"?>
<!-- Generator: Adobe Illustrator 16.0.0, SVG Export Plug-In . SVG Version: 6.00 Build 0)  -->
<!DOCTYPE svg PUBLIC "-//W3C//DTD SVG 1.1//EN" "http://www.w3.org/Graphics/SVG/1.1/DTD/svg11.dtd">
<svg version="1.1" xmlns="http://www.w3.org/2000/svg" xmlns:xlink="http://www.w3.org/1999/xlink" x="0px" y="0px" width="64px"
	 height="54px" viewBox="0 0 64 54" style="enable-background:new 0 0 64 54;" xml:space="preserve">
<g id="Layer_25">
	<g>
		<path d="M2,4h60c1.104,0,2-0.896,2-2c0-1.105-0.896-2-2-2H2C0.896,0,0,0.895,0,2C0,3.104,0.896,4,2,4z"/>
		<path d="M62,50H2c-1.104,0-2,0.895-2,2c0,1.104,0.896,2,2,2h60c1.104,0,2-0.896,2-2C64,50.895,63.104,50,62,50z"/>
		<path d="M36.586,19.414C36.977,19.805,37.488,20,38,20s1.023-0.195,1.414-0.586c0.781-0.781,0.781-2.048,0-2.828l-6-6
			c-0.78-0.781-2.048-0.781-2.828,0l-6,6c-0.781,0.78-0.781,2.047,0,2.828C24.977,19.805,25.488,20,26,20s1.023-0.195,1.414-0.586
			L30,16.828v20.344l-2.586-2.586c-0.78-0.781-2.048-0.781-2.828,0c-0.781,0.78-0.781,2.047,0,2.828l6,6
			C30.977,43.805,31.488,44,32,44s1.023-0.195,1.414-0.586l6-6c0.781-0.781,0.781-2.048,0-2.828c-0.78-0.781-2.048-0.781-2.828,0
			L34,37.172V16.828L36.586,19.414z"/>
	</g>
</g>
<g id="Layer_1">
</g>
</svg>
