<?xml version="1.0" encoding="iso-8859-1"?>
<!-- Generator: Adobe Illustrator 16.0.0, SVG Export Plug-In . SVG Version: 6.00 Build 0)  -->
<!DOCTYPE svg PUBLIC "-//W3C//DTD SVG 1.1//EN" "http://www.w3.org/Graphics/SVG/1.1/DTD/svg11.dtd">
<svg version="1.1" xmlns="http://www.w3.org/2000/svg" xmlns:xlink="http://www.w3.org/1999/xlink" x="0px" y="0px" width="62px"
	 height="64px" viewBox="0 0 62 64" style="enable-background:new 0 0 62 64;" xml:space="preserve">
<g id="Layer_64">
	<g>
		<path d="M34.049,43.049c-2.73,2.731-2.733,7.169,0,9.9c2.735,2.734,7.165,2.734,9.9,0c2.732-2.732,2.734-7.166,0-9.9
			C41.217,40.316,36.781,40.317,34.049,43.049z M41.121,50.12c-1.17,1.17-3.072,1.169-4.243,0c-1.171-1.174-1.169-3.073,0-4.242
			c1.173-1.173,3.07-1.173,4.243,0C42.291,47.047,42.293,48.947,41.121,50.12z"/>
		<path d="M27.949,36.949c2.732-2.732,2.735-7.166,0-9.899c-2.732-2.733-7.168-2.732-9.9,0c-2.731,2.73-2.734,7.169,0,9.899
			C20.784,39.684,25.214,39.684,27.949,36.949z M20.878,29.878c1.172-1.173,3.07-1.173,4.243,0c1.169,1.17,1.172,3.07,0,4.243
			c-1.169,1.169-3.072,1.168-4.243,0C19.706,32.947,19.708,31.047,20.878,29.878z"/>
		<path d="M19.586,48.586c-0.781,0.781-0.781,2.047,0,2.828C19.976,51.805,20.488,52,21,52s1.024-0.195,1.414-0.586l20-20
			c0.781-0.781,0.781-2.047,0-2.828c-0.78-0.781-2.048-0.781-2.828,0L19.586,48.586z"/>
		<path d="M61.414,29.586l-29-29c-0.78-0.781-2.048-0.781-2.828,0l-29,29c-0.781,0.781-0.781,2.048,0,2.828
			c0.78,0.78,2.047,0.781,2.828,0L7,28.828V58c0,3.3,2.7,6,6,6h36c3.3,0,6-2.7,6-6V28.828l3.586,3.586
			c0.781,0.781,2.048,0.78,2.828,0C62.195,31.634,62.195,30.367,61.414,29.586z M51,58c0,1.1-0.9,2-2,2H13c-1.1,0-2-0.9-2-2V24.828
			l20-20l20,20V58z"/>
	</g>
</g>
<g id="Layer_1">
</g>
</svg>
