<?xml version="1.0" encoding="iso-8859-1"?>
<!-- Generator: Adobe Illustrator 16.0.0, SVG Export Plug-In . SVG Version: 6.00 Build 0)  -->
<!DOCTYPE svg PUBLIC "-//W3C//DTD SVG 1.1//EN" "http://www.w3.org/Graphics/SVG/1.1/DTD/svg11.dtd">
<svg version="1.1" xmlns="http://www.w3.org/2000/svg" xmlns:xlink="http://www.w3.org/1999/xlink" x="0px" y="0px" width="62px"
	 height="64px" viewBox="0 0 62 64" style="enable-background:new 0 0 62 64;" xml:space="preserve">
<g id="Layer_60">
	<g>
		<path d="M31,31.916C29.677,30.678,27.978,30,26.177,30c-1.917,0-3.719,0.769-5.075,2.164c-1.356,1.395-2.103,3.25-2.103,5.224
			s0.747,3.829,2.103,5.224l8.574,8.824C30.042,51.812,30.521,52,31,52s0.958-0.188,1.324-0.564l8.572-8.824
			c1.357-1.395,2.103-3.25,2.103-5.225c0-1.973-0.745-3.828-2.103-5.223C39.541,30.769,37.74,30,35.822,30
			C34.021,30,32.322,30.678,31,31.916z M38.248,34.89c0.649,0.667,1.007,1.554,1.007,2.497c0,0.944-0.357,1.832-1.007,2.5L31,47.348
			l-7.25-7.461c-1.338-1.379-1.338-3.619,0-4.998c0.649-0.666,1.51-1.033,2.427-1.033c0.917,0,1.778,0.367,2.428,1.035
			c0.278,0.285,0.502,0.629,0.688,1.051c0.303,0.69,0.97,1.134,1.706,1.135H31c0.735,0,1.402-0.443,1.706-1.133
			c0.185-0.423,0.411-0.768,0.689-1.055C34.691,33.555,36.953,33.556,38.248,34.89z"/>
		<path d="M61.414,29.586l-6.998-6.999c-0.002-0.001-0.002-0.002-0.004-0.003L32.414,0.586c-0.78-0.781-2.048-0.781-2.828,0
			L7.587,22.584c-0.001,0.001-0.002,0.002-0.003,0.003l-6.999,6.999c-0.781,0.781-0.781,2.047,0,2.828C0.976,32.805,1.488,33,2,33
			s1.024-0.195,1.414-0.586L7,28.828V57c0,3.859,3.14,7,7,7h34c3.859,0,7-3.141,7-7V28.828l3.586,3.586
			C58.977,32.805,59.488,33,60,33s1.023-0.195,1.414-0.586C62.195,31.633,62.195,30.367,61.414,29.586z M51,57c0,1.654-1.346,3-3,3
			H14c-1.654,0-3-1.346-3-3V24.828l20-20l20,20V57z"/>
	</g>
</g>
<g id="Layer_1">
</g>
</svg>
