<?xml version="1.0" encoding="iso-8859-1"?>
<!-- Generator: Adobe Illustrator 16.0.0, SVG Export Plug-In . SVG Version: 6.00 Build 0)  -->
<!DOCTYPE svg PUBLIC "-//W3C//DTD SVG 1.1//EN" "http://www.w3.org/Graphics/SVG/1.1/DTD/svg11.dtd">
<svg version="1.1" xmlns="http://www.w3.org/2000/svg" xmlns:xlink="http://www.w3.org/1999/xlink" x="0px" y="0px" width="62px"
	 height="64px" viewBox="0 0 62 64" style="enable-background:new 0 0 62 64;" xml:space="preserve">
<g id="Layer_62">
	<g>
		<path d="M33,24c0-1.104-0.896-2-2-2s-2,0.896-2,2v2c0,0.099,0.016,0.192,0.029,0.287C26.127,27.142,24,29.825,24,33
			c0,3.738,3.675,4.984,6.357,5.895C32.49,39.617,34,40.191,34,41c0,1.654-1.346,3-3,3s-3-1.346-3-3c0-1.104-0.896-2-2-2
			s-2,0.896-2,2c0,3.175,2.127,5.858,5.029,6.713C29.016,47.808,29,47.901,29,48v2c0,1.104,0.896,2,2,2s2-0.896,2-2v-2
			c0-0.099-0.016-0.192-0.029-0.287C35.873,46.858,38,44.175,38,41c0-3.738-3.675-4.984-6.357-5.895C29.51,34.383,28,33.809,28,33
			c0-1.654,1.346-3,3-3s3,1.346,3,3c0,1.104,0.896,2,2,2s2-0.896,2-2c0-3.175-2.127-5.858-5.029-6.713
			C32.984,26.192,33,26.099,33,26V24z"/>
		<path d="M61.414,29.586l-29-29c-0.78-0.781-2.048-0.781-2.828,0l-29,29c-0.781,0.781-0.781,2.048,0,2.828
			c0.78,0.78,2.047,0.781,2.828,0L7,28.828V58c0,3.3,2.7,6,6,6h36c3.3,0,6-2.7,6-6V28.828l3.586,3.586
			c0.781,0.781,2.048,0.78,2.828,0C62.195,31.634,62.195,30.367,61.414,29.586z M51,58c0,1.1-0.9,2-2,2H13c-1.1,0-2-0.9-2-2V24.828
			l20-20l20,20V58z"/>
	</g>
</g>
<g id="Layer_1">
</g>
</svg>
