<?xml version="1.0" encoding="iso-8859-1"?>
<!-- Generator: Adobe Illustrator 16.0.0, SVG Export Plug-In . SVG Version: 6.00 Build 0)  -->
<!DOCTYPE svg PUBLIC "-//W3C//DTD SVG 1.1//EN" "http://www.w3.org/Graphics/SVG/1.1/DTD/svg11.dtd">
<svg version="1.1" xmlns="http://www.w3.org/2000/svg" xmlns:xlink="http://www.w3.org/1999/xlink" x="0px" y="0px" width="62px"
	 height="64px" viewBox="0 0 62 64" style="enable-background:new 0 0 62 64;" xml:space="preserve">
<g id="Layer_61">
	<g>
		<path d="M35.252,27.961c-3.946-3.949-10.345-3.947-14.292,0s-3.947,10.346,0.001,14.292c3.199,3.199,8.01,3.804,11.819,1.814
			l6.035,6.035c0.003,0.004,0.005,0.008,0.009,0.011c1.185,1.183,3.104,1.185,4.287,0c1.185-1.185,1.185-3.104,0-4.287l0.001-0.001
			l-6.045-6.047C39.057,35.968,38.453,31.158,35.252,27.961z M23.803,39.409c-2.366-2.368-2.367-6.206,0-8.575
			c2.367-2.367,6.207-2.367,8.575,0c2.366,2.367,2.367,6.207,0,8.574C30.01,41.777,26.17,41.776,23.803,39.409z"/>
		<path d="M61.414,29.586l-29-29c-0.78-0.781-2.048-0.781-2.828,0l-29,29c-0.781,0.781-0.781,2.048,0,2.828
			c0.78,0.78,2.047,0.781,2.828,0L7,28.828V58c0,3.3,2.7,6,6,6h36c3.3,0,6-2.7,6-6V28.828l3.586,3.586
			c0.781,0.781,2.048,0.78,2.828,0C62.195,31.634,62.195,30.367,61.414,29.586z M51,58c0,1.1-0.9,2-2,2H13c-1.1,0-2-0.9-2-2V24.828
			l20-20l20,20V58z"/>
	</g>
</g>
<g id="Layer_1">
</g>
</svg>
