<?xml version="1.0" encoding="iso-8859-1"?>
<!-- Generator: Adobe Illustrator 16.0.0, SVG Export Plug-In . SVG Version: 6.00 Build 0)  -->
<!DOCTYPE svg PUBLIC "-//W3C//DTD SVG 1.1//EN" "http://www.w3.org/Graphics/SVG/1.1/DTD/svg11.dtd">
<svg version="1.1" xmlns="http://www.w3.org/2000/svg" xmlns:xlink="http://www.w3.org/1999/xlink" x="0px" y="0px"
	 width="38.288px" height="64px" viewBox="0 0 38.288 64" style="enable-background:new 0 0 38.288 64;" xml:space="preserve">
<g id="Layer_33">
	<path d="M38.115,29.635L32.055,5.396C31.299,2.37,28.264,0,25.145,0h-12c-3.119,0-6.154,2.37-6.91,5.395l-6.061,24.24
		c-0.404,1.619-0.094,3.243,0.854,4.457C1.975,35.305,3.475,36,5.144,36h12v18h-8c-0.139,0-0.273,0.014-0.403,0.041
		C6.175,54.25,4.144,56.381,4.144,59s2.031,4.75,4.597,4.959C8.871,63.986,9.005,64,9.144,64h20c0.139,0,0.273-0.014,0.403-0.041
		c2.565-0.209,4.597-2.34,4.597-4.959s-2.031-4.75-4.597-4.959C29.418,54.014,29.283,54,29.145,54h-8V36h8v6.277
		c-0.596,0.347-1,0.984-1,1.723c0,1.104,0.896,2,2,2c1.104,0,2-0.896,2-2c0-0.738-0.404-1.376-1-1.723V36h2
		c1.669,0,3.169-0.695,4.116-1.908C38.209,32.878,38.52,31.254,38.115,29.635z M9.144,60c-0.551,0-1-0.449-1-1s0.449-1,1-1h20
		c0.551,0,1,0.449,1,1s-0.449,1-1,1H9.144z M34.108,31.629C33.922,31.868,33.58,32,33.145,32h-28c-0.436,0-0.777-0.132-0.964-0.371
		c-0.187-0.238-0.231-0.603-0.126-1.023l6.061-24.24C10.423,5.127,11.868,4,13.144,4h12c1.276,0,2.721,1.127,3.029,2.365
		l6.061,24.239C34.34,31.026,34.295,31.391,34.108,31.629z"/>
</g>
<g id="Layer_1">
</g>
</svg>
