<?xml version="1.0" encoding="iso-8859-1"?>
<!-- Generator: Adobe Illustrator 16.0.0, SVG Export Plug-In . SVG Version: 6.00 Build 0)  -->
<!DOCTYPE svg PUBLIC "-//W3C//DTD SVG 1.1//EN" "http://www.w3.org/Graphics/SVG/1.1/DTD/svg11.dtd">
<svg version="1.1" xmlns="http://www.w3.org/2000/svg" xmlns:xlink="http://www.w3.org/1999/xlink" x="0px" y="0px" width="46px"
	 height="64px" viewBox="0 0 46 64" style="enable-background:new 0 0 46 64;" xml:space="preserve">
<g id="Layer_34">
	<path d="M46,59c0-2.619-2.031-4.75-4.597-4.959C41.273,54.014,41.139,54,41,54H21v-5.556c1.189-0.692,2-1.968,2-3.444
		c0-2.209-1.793-4-4-4c-0.271,0-0.535,0.028-0.792,0.08L7.777,29.259C7.91,28.861,8,28.442,8,28c0-0.59-0.135-1.145-0.365-1.648
		l10.992-15.389C18.752,10.975,18.873,11,19,11c1.475,0,2.751-0.81,3.444-2h3.913c-3.297,2.178-5.359,5.884-5.357,10.001
		C21,20.105,21.896,21,23,21h3.29c0.327,1.103,0.923,2.113,1.759,2.949c1.322,1.322,3.08,2.051,4.95,2.051s3.628-0.729,4.95-2.051
		c0.837-0.836,1.434-1.848,1.76-2.95H43c1.104,0,2-0.896,2-1.999c0.002-4.764-2.756-8.981-7-10.913V2c0-1.104-0.896-2-2-2h-6
		c-1.104,0-2,0.896-2,2v3h-5.556C21.751,3.81,20.475,3,19,3c-2.209,0-4,1.791-4,4c0,0.59,0.135,1.145,0.364,1.648L4.373,24.037
		C4.248,24.025,4.127,24,4,24c-2.209,0-4,1.791-4,4s1.791,4,4,4c0.271,0,0.535-0.028,0.792-0.08l10.431,11.82
		C15.089,44.139,15,44.557,15,45c0,1.477,0.81,2.752,2,3.445V54h-4c-0.139,0-0.273,0.014-0.403,0.041C10.031,54.25,8,56.381,8,59
		s2.031,4.75,4.597,4.959C12.727,63.986,12.861,64,13,64h28c0.139,0,0.273-0.014,0.403-0.041C43.969,63.75,46,61.619,46,59z
		 M35.121,21.121c-1.133,1.133-3.11,1.134-4.243,0c-0.04-0.039-0.078-0.08-0.114-0.121h4.473
		C35.199,21.041,35.16,21.082,35.121,21.121z M32,4h2v5.459c0,0.874,0.567,1.646,1.4,1.908c2.695,0.846,4.678,2.995,5.351,5.632
		L25.249,17c0.672-2.639,2.655-4.788,5.35-5.634C31.433,11.104,32,10.332,32,9.458V4z M13,60c-0.551,0-1-0.449-1-1s0.449-1,1-1h28
		c0.551,0,1,0.449,1,1s-0.449,1-1,1H13z"/>
</g>
<g id="Layer_1">
</g>
</svg>
