<?xml version="1.0" encoding="iso-8859-1"?>
<!-- Generator: Adobe Illustrator 16.0.0, SVG Export Plug-In . SVG Version: 6.00 Build 0)  -->
<!DOCTYPE svg PUBLIC "-//W3C//DTD SVG 1.1//EN" "http://www.w3.org/Graphics/SVG/1.1/DTD/svg11.dtd">
<svg version="1.1" xmlns="http://www.w3.org/2000/svg" xmlns:xlink="http://www.w3.org/1999/xlink" x="0px" y="0px" width="64px"
	 height="64px" viewBox="0 0 64 64" style="enable-background:new 0 0 64 64;" xml:space="preserve">
<g id="Layer_18">
	<g>
		<path d="M50,0H14C6.28,0,0,6.28,0,14v16c0,1.104,0.896,2,2,2h24v30c0,1.104,0.896,2,2,2h8c1.104,0,2-0.896,2-2V32h24
			c1.104,0,2-0.896,2-2V14C64,6.28,57.72,0,50,0z M50,4c5.514,0,10,4.486,10,10v14H28V14c0-3.916-1.621-7.457-4.221-10H50z M14,4
			c5.514,0,10,4.486,10,10v14H4V14C4,8.486,8.486,4,14,4z M34,60h-4V32h4V60z"/>
		<path d="M34,17h14v4c0,1.104,0.896,2,2,2s2-0.896,2-2v-6c0-1.104-0.896-2-2-2H34c-1.104,0-2,0.896-2,2S32.896,17,34,17z"/>
		<path d="M10,26h8c1.104,0,2-0.896,2-2s-0.896-2-2-2h-8c-1.104,0-2,0.896-2,2S8.896,26,10,26z"/>
	</g>
</g>
<g id="Layer_1">
</g>
</svg>
