<?xml version="1.0" encoding="iso-8859-1"?>
<!-- Generator: Adobe Illustrator 16.0.0, SVG Export Plug-In . SVG Version: 6.00 Build 0)  -->
<!DOCTYPE svg PUBLIC "-//W3C//DTD SVG 1.1//EN" "http://www.w3.org/Graphics/SVG/1.1/DTD/svg11.dtd">
<svg version="1.1" xmlns="http://www.w3.org/2000/svg" xmlns:xlink="http://www.w3.org/1999/xlink" x="0px" y="0px" width="64px"
	 height="48px" viewBox="0 0 64 48" style="enable-background:new 0 0 64 48;" xml:space="preserve">
<g id="Layer_29">
	<g>
		<path d="M62,22h-3.072l-10.4-12.292C48.147,9.259,47.589,9,47,9h-8.999V6c0-3.309-2.691-6-6-6H6C2.691,0,0,2.691,0,6l0.002,30
			c0,3.309,2.691,6,6,6h3.262c0.889,3.449,4.01,6,7.738,6c3.727-0.001,6.845-2.555,7.736-6h14.526c0.888,3.449,4.009,6,7.736,6
			c3.727-0.001,6.846-2.555,7.736-6H58c3.309,0,6-2.691,6-6V24C64,22.896,63.104,22,62,22z M46.072,13l7.616,9H38.001v-9H46.072z
			 M17.001,43.999c-2.209,0-4.002-1.792-4-4c-0.002-2.208,1.791-4,4-4c2.207,0,4,1.792,4,4S19.208,43.999,17.001,43.999z M47,43.999
			c-2.209,0-4.002-1.792-4-4c-0.002-2.208,1.791-4,4-4c2.207,0,4,1.792,4,4S49.207,43.999,47,43.999z M58,38h-3.262
			c-0.889-3.448-4.01-6.001-7.738-6c-3.727,0.001-6.848,2.552-7.736,6H24.739c-0.889-3.448-4.01-6.001-7.738-6
			c-3.728,0.001-6.849,2.552-7.738,6H6.002c-1.103,0-2-0.896-2-2L4,6c0-1.103,0.897-2,2-2h26.001c1.103,0,2,0.897,2,2v5v13
			c0,1.104,0.896,2,2,2H58h2v10C60,37.104,59.104,38,58,38z"/>
		<path d="M28.924,20.618c-0.051-0.122-0.124-0.233-0.216-0.325l-4-4c-0.391-0.391-1.023-0.391-1.414,0
			c-0.391,0.391-0.391,1.023,0,1.414L25.587,20H14.001c-0.552,0-1,0.448-1,1s0.448,1,1,1h11.585l-2.292,2.293
			c-0.391,0.391-0.391,1.023,0,1.414C23.49,25.902,23.745,26,24.001,26s0.512-0.098,0.707-0.293l4-4
			c0.092-0.092,0.166-0.203,0.216-0.325C29.025,21.138,29.025,20.862,28.924,20.618z"/>
		<path d="M14.001,18c0.256,0,0.512-0.098,0.707-0.293c0.391-0.391,0.391-1.023,0-1.414L12.416,14h11.585c0.552,0,1-0.448,1-1
			s-0.448-1-1-1H12.416l2.293-2.293c0.391-0.391,0.391-1.023,0-1.414s-1.023-0.391-1.414,0l-4,4
			c-0.092,0.092-0.166,0.203-0.216,0.325c-0.101,0.245-0.101,0.52,0,0.765c0.051,0.122,0.124,0.233,0.216,0.325l4,4
			C13.49,17.902,13.746,18,14.001,18z"/>
	</g>
</g>
<g id="Layer_1">
</g>
</svg>
