<?xml version="1.0" encoding="iso-8859-1"?>
<!-- Generator: Adobe Illustrator 16.0.0, SVG Export Plug-In . SVG Version: 6.00 Build 0)  -->
<!DOCTYPE svg PUBLIC "-//W3C//DTD SVG 1.1//EN" "http://www.w3.org/Graphics/SVG/1.1/DTD/svg11.dtd">
<svg version="1.1" xmlns="http://www.w3.org/2000/svg" xmlns:xlink="http://www.w3.org/1999/xlink" x="0px" y="0px" width="64px"
	 height="64px" viewBox="0 0 64 64" style="enable-background:new 0 0 64 64;" xml:space="preserve">
<g id="Layer_52">
	<g>
		<path d="M58,6H34V2c0-1.105-0.896-2-2-2s-2,0.895-2,2v4H6c-3.301,0-6,2.699-6,6v20c0,3.299,2.699,6,6,6h24v22h-7
			c-1.104,0-2,0.895-2,2c0,1.104,0.896,2,2,2h18c1.104,0,2-0.896,2-2c0-1.105-0.896-2-2-2h-7V38h24c3.299,0,6-2.701,6-6V12
			C64,8.699,61.299,6,58,6z M60,32c0,1.1-0.9,2-2,2H6c-1.1,0-2-0.9-2-2V12c0-1.1,0.9-2,2-2h52c1.1,0,2,0.9,2,2V32z"/>
		<path d="M21.136,19.959c0-1.969-1.358-2.953-4.074-2.953h-3.274V27h2.7v-3.637h0.684L19.29,27h3.062l-2.912-4.355
			C20.57,22.012,21.136,21.115,21.136,19.959z M16.993,21.332h-0.506v-2.283h0.533c0.925,0,1.388,0.344,1.388,1.033
			C18.408,20.916,17.937,21.332,16.993,21.332z"/>
		<polygon points="23.853,27 29.786,27 29.786,24.799 26.553,24.799 26.553,22.912 29.547,22.912 29.547,20.744 26.553,20.744 
			26.553,19.172 29.786,19.172 29.786,17.006 23.853,17.006 		"/>
		<path d="M39.197,21.523c0,0.611,0.032,1.42,0.096,2.428h-0.041l-3.637-6.945h-3.527V27h2.393v-4.506
			c0-0.582-0.043-1.428-0.13-2.535h0.062L38.062,27h3.541v-9.994h-2.406V21.523z"/>
		<polygon points="43.369,19.213 45.81,19.213 45.81,27 48.51,27 48.51,19.213 50.943,19.213 50.943,17.006 43.369,17.006 		"/>
	</g>
</g>
<g id="Layer_1">
</g>
</svg>
