<?xml version="1.0" encoding="iso-8859-1"?>
<!-- Generator: Adobe Illustrator 16.0.0, SVG Export Plug-In . SVG Version: 6.00 Build 0)  -->
<!DOCTYPE svg PUBLIC "-//W3C//DTD SVG 1.1//EN" "http://www.w3.org/Graphics/SVG/1.1/DTD/svg11.dtd">
<svg version="1.1" xmlns="http://www.w3.org/2000/svg" xmlns:xlink="http://www.w3.org/1999/xlink" x="0px" y="0px" width="64px"
	 height="64px" viewBox="0 0 64 64" style="enable-background:new 0 0 64 64;" xml:space="preserve">
<g id="Layer_50">
	<g>
		<path d="M58,6H34V2c0-1.105-0.896-2-2-2s-2,0.895-2,2v4H6c-3.301,0-6,2.699-6,6v20c0,3.299,2.699,6,6,6h24v22h-7
			c-1.104,0-2,0.895-2,2c0,1.104,0.896,2,2,2h18c1.104,0,2-0.896,2-2c0-1.105-0.896-2-2-2h-7V38h24c3.299,0,6-2.701,6-6V12
			C64,8.699,61.299,6,58,6z M60,32c0,1.1-0.9,2-2,2H6c-1.1,0-2-0.9-2-2V12c0-1.1,0.9-2,2-2h52c1.1,0,2,0.9,2,2V32z"/>
		<path d="M18.724,19.021c0.679,0,1.485,0.215,2.42,0.643l0.827-2.084c-1.075-0.479-2.131-0.719-3.165-0.719
			c-1.171,0-2.092,0.258-2.762,0.773c-0.67,0.514-1.005,1.232-1.005,2.152c0,0.492,0.078,0.918,0.236,1.279
			c0.156,0.359,0.398,0.678,0.725,0.957c0.325,0.277,0.814,0.564,1.466,0.861c0.72,0.322,1.163,0.537,1.329,0.643
			c0.167,0.104,0.287,0.209,0.363,0.311c0.074,0.104,0.112,0.223,0.112,0.359c0,0.219-0.094,0.396-0.28,0.537
			c-0.187,0.139-0.48,0.207-0.882,0.207c-0.465,0-0.976-0.074-1.531-0.221c-0.556-0.148-1.092-0.355-1.606-0.619v2.406
			c0.487,0.232,0.957,0.395,1.408,0.488s1.01,0.141,1.675,0.141c0.798,0,1.492-0.133,2.085-0.4c0.593-0.266,1.046-0.641,1.36-1.121
			s0.472-1.031,0.472-1.65c0-0.676-0.168-1.234-0.502-1.678c-0.336-0.445-0.934-0.861-1.795-1.248
			c-0.897-0.41-1.448-0.693-1.65-0.848c-0.203-0.156-0.305-0.33-0.305-0.527c0-0.182,0.08-0.334,0.239-0.457
			S18.373,19.021,18.724,19.021z"/>
		<path d="M26.151,16.965L22.891,27h2.967l0.506-1.873h3.247L30.103,27h2.953l-3.302-10.035H26.151z M26.924,22.912
			c0.415-1.568,0.683-2.619,0.803-3.152c0.121-0.533,0.202-0.916,0.243-1.148c0.046,0.252,0.14,0.666,0.284,1.244
			c0.143,0.58,0.265,1.051,0.365,1.416l0.431,1.641H26.924z"/>
		<polygon points="37.349,17.006 34.648,17.006 34.648,27 41.197,27 41.197,24.818 37.349,24.818 		"/>
		<polygon points="43.041,27 48.975,27 48.975,24.799 45.741,24.799 45.741,22.912 48.735,22.912 48.735,20.744 45.741,20.744 
			45.741,19.172 48.975,19.172 48.975,17.006 43.041,17.006 		"/>
	</g>
</g>
<g id="Layer_1">
</g>
</svg>
