<?xml version="1.0" encoding="iso-8859-1"?>
<!-- Generator: Adobe Illustrator 16.0.0, SVG Export Plug-In . SVG Version: 6.00 Build 0)  -->
<!DOCTYPE svg PUBLIC "-//W3C//DTD SVG 1.1//EN" "http://www.w3.org/Graphics/SVG/1.1/DTD/svg11.dtd">
<svg version="1.1" xmlns="http://www.w3.org/2000/svg" xmlns:xlink="http://www.w3.org/1999/xlink" x="0px" y="0px"
	 width="64.003px" height="28px" viewBox="0 0 64.003 28" style="enable-background:new 0 0 64.003 28;" xml:space="preserve">
<g id="Layer_12">
	<g>
		<path d="M64.003,2.001c0-1.104-0.896-2-2-2H14.01C14.006,0.001,14.004,0,14,0H2C0.896,0,0,0.896,0,2v24c0,1.104,0.896,2,2,2h12
			c1.104,0,2-0.896,2-2v-1.931l1.274,0.983c0.364,0.28,0.794,0.416,1.22,0.416c0.594,0,1.182-0.263,1.576-0.766l2.279-2.907
			l2.925,2.257c0.87,0.671,2.118,0.515,2.796-0.351l2.278-2.906l2.926,2.257c0.87,0.67,2.118,0.516,2.796-0.351l2.278-2.906
			l2.925,2.257c0.869,0.671,2.119,0.515,2.796-0.35l2.279-2.907l2.925,2.257c0.87,0.67,2.118,0.515,2.796-0.35l2.279-2.907
			l2.925,2.257c0.87,0.67,2.118,0.516,2.796-0.351l3.503-4.469c0.287-0.366,0.417-0.802,0.417-1.233h0.014V2.001z M12,24H4V4h8V24z
			 M58.146,15.673l-2.925-2.257c-0.87-0.67-2.118-0.516-2.796,0.35l-2.279,2.907l-2.925-2.257c-0.87-0.671-2.118-0.515-2.796,0.35
			l-2.279,2.907l-2.925-2.257c-0.87-0.67-2.118-0.516-2.796,0.351l-2.278,2.906l-2.926-2.257c-0.869-0.671-2.117-0.516-2.796,0.351
			l-2.278,2.906l-2.925-2.257c-0.87-0.67-2.118-0.515-2.796,0.35l-2.279,2.907l-2.144-1.654V4.001h44v9.303L58.146,15.673z"/>
		<path d="M8,20c1.104,0,2-0.896,2-2v-8c0-1.104-0.896-2-2-2s-2,0.896-2,2v8C6,19.104,6.896,20,8,20z"/>
	</g>
</g>
<g id="Layer_1">
</g>
</svg>
