<?xml version="1.0" encoding="iso-8859-1"?>
<!-- Generator: Adobe Illustrator 16.0.0, SVG Export Plug-In . SVG Version: 6.00 Build 0)  -->
<!DOCTYPE svg PUBLIC "-//W3C//DTD SVG 1.1//EN" "http://www.w3.org/Graphics/SVG/1.1/DTD/svg11.dtd">
<svg version="1.1" xmlns="http://www.w3.org/2000/svg" xmlns:xlink="http://www.w3.org/1999/xlink" x="0px" y="0px" width="12px"
	 height="64.002px" viewBox="0 0 12 64.002" style="enable-background:new 0 0 12 64.002;" xml:space="preserve">
<g id="Layer_9">
	<path d="M11.789,39.106L8,31.528V15.237l2.895-1.447c0.742-0.371,1.178-1.162,1.096-1.988l-1-10.001C10.888,0.778,10.027,0,9,0H3
		C1.973,0,1.112,0.778,1.01,1.801l-1,10.001c-0.082,0.826,0.354,1.617,1.096,1.988L4,15.237v16.291l-3.789,7.578
		C0.072,39.384,0,39.69,0,40.001v18c0,3.309,2.691,6.001,6,6.001s6-2.692,6-6.001v-18C12,39.69,11.928,39.384,11.789,39.106z
		 M4.811,4h2.379l0.684,6.828L6,11.765l-1.873-0.937L4.811,4z M6,60.002c-1.104,0-2-0.897-2-2.001V40.473l2-3.999l2,3.999v17.528
		C8,59.104,7.104,60.002,6,60.002z"/>
</g>
<g id="Layer_1">
</g>
</svg>
