<?xml version="1.0" encoding="iso-8859-1"?>
<!-- Generator: Adobe Illustrator 16.0.0, SVG Export Plug-In . SVG Version: 6.00 Build 0)  -->
<!DOCTYPE svg PUBLIC "-//W3C//DTD SVG 1.1//EN" "http://www.w3.org/Graphics/SVG/1.1/DTD/svg11.dtd">
<svg version="1.1" xmlns="http://www.w3.org/2000/svg" xmlns:xlink="http://www.w3.org/1999/xlink" x="0px" y="0px" width="64px"
	 height="64px" viewBox="0 0 64 64" style="enable-background:new 0 0 64 64;" xml:space="preserve">
<g id="Layer_54">
	<path d="M63.992,24.494C63.993,24.455,64,24.416,64,24.375h-0.009c0-0.33-0.071-0.664-0.243-0.973L56,9.48V2
		c0-0.045-0.01-0.086-0.014-0.129c-0.023-0.365-0.135-0.705-0.328-0.99C55.299,0.35,54.69,0,54,0c-0.004,0-0.006,0-0.01,0H10.01
		C10.006,0,10.004,0,10,0C9.365,0,8.805,0.301,8.439,0.764C8.168,1.105,8,1.531,8,2v7.48L0.252,23.402
		c-0.172,0.309-0.243,0.643-0.243,0.973H0c0,0.041,0.007,0.08,0.008,0.119c0.002,0.027,0.002,0.055,0.005,0.082
		C0.134,28.279,3.555,31.324,8,31.895V58c0,3.299,2.7,6,6,6h36c3.3,0,6-2.701,6-6V31.895c4.445-0.57,7.866-3.615,7.987-7.318
		C63.99,24.549,63.99,24.521,63.992,24.494z M44.981,24.605C44.793,26.467,42.363,28,39.5,28c-2.981,0-5.5-1.66-5.5-3.625V12h7.211
		L44.981,24.605z M22.789,12H30v12.375C30,26.34,27.481,28,24.5,28c-2.863,0-5.293-1.533-5.481-3.395L22.789,12z M12,8V4h40v4H12z
		 M4.046,24.811L11.176,12h7.438l-3.529,11.801c-0.057,0.191-0.074,0.385-0.074,0.574H15C15,26.34,12.481,28,9.5,28
		C6.742,28,4.385,26.578,4.046,24.811z M26,60V40h12v20H26z M50,60h-8V38c0-1.105-0.896-2-2-2H24c-1.104,0-2,0.895-2,2v22h-8
		c-1.1,0-2-0.9-2-2V31.723c2.012-0.441,3.755-1.398,5-2.686C18.739,30.836,21.451,32,24.5,32s5.761-1.164,7.5-2.963
		C33.739,30.836,36.451,32,39.5,32s5.761-1.164,7.5-2.963c1.245,1.287,2.988,2.244,5,2.686V58C52,59.1,51.1,60,50,60z M54.5,28
		c-2.981,0-5.5-1.66-5.5-3.625h-0.01c0-0.189-0.018-0.383-0.074-0.574L45.387,12h7.438l7.13,12.811C59.615,26.578,57.258,28,54.5,28
		z"/>
</g>
<g id="Layer_1">
</g>
</svg>
