<?xml version="1.0" encoding="iso-8859-1"?>
<!-- Generator: Adobe Illustrator 16.0.0, SVG Export Plug-In . SVG Version: 6.00 Build 0)  -->
<!DOCTYPE svg PUBLIC "-//W3C//DTD SVG 1.1//EN" "http://www.w3.org/Graphics/SVG/1.1/DTD/svg11.dtd">
<svg version="1.1" xmlns="http://www.w3.org/2000/svg" xmlns:xlink="http://www.w3.org/1999/xlink" x="0px" y="0px" width="24px"
	 height="64px" viewBox="0 0 24 64" style="enable-background:new 0 0 24 64;" xml:space="preserve">
<g id="Layer_11">
	<path d="M22,28h-8V4h4c1.104,0,2-0.896,2-2s-0.896-2-2-2H6C4.896,0,4,0.896,4,2s0.896,2,2,2h4v24H2c-1.104,0-2,0.896-2,2v27
		c0,0.758,0.428,1.45,1.105,1.789l10,5C11.387,63.93,11.693,64,12,64s0.613-0.07,0.895-0.211l10-5C23.572,58.45,24,57.758,24,57V30
		C24,28.896,23.104,28,22,28z M20,32v2h-6v-2H20z M10,32v2H4v-2H10z M12,59.764l-8-4V38h6c0,1.104,0.896,2,2,2s2-0.896,2-2h6v17.764
		L12,59.764z"/>
</g>
<g id="Layer_1">
</g>
</svg>
