<?xml version="1.0" encoding="iso-8859-1"?>
<!-- Generator: Adobe Illustrator 16.0.0, SVG Export Plug-In . SVG Version: 6.00 Build 0)  -->
<!DOCTYPE svg PUBLIC "-//W3C//DTD SVG 1.1//EN" "http://www.w3.org/Graphics/SVG/1.1/DTD/svg11.dtd">
<svg version="1.1" xmlns="http://www.w3.org/2000/svg" xmlns:xlink="http://www.w3.org/1999/xlink" x="0px" y="0px" width="64px"
	 height="38px" viewBox="0 0 64 38" style="enable-background:new 0 0 64 38;" xml:space="preserve">
<g id="Layer_46">
	<path d="M64,17c0-2.757-2.243-5-5-5h-4c-0.342,0-0.677,0.035-1,0.102V2c0-1.104-0.896-2-2-2H12c-1.104,0-2,0.896-2,2v10.102
		C9.677,12.035,9.342,12,9,12H5c-2.757,0-5,2.243-5,5v9l0.018,0.009H0c0,4.411,3.589,8,8,8V34h2v2c0,1.104,0.896,2,2,2s2-0.896,2-2
		v-2h36v2c0,1.104,0.896,2,2,2s2-0.896,2-2v-2h2v0.009c4.411,0,8-3.589,8-8h-0.018L64,26V17z M34,4h16v16H34V4z M14,4h16v16H14V4z
		 M60,26.009c0,2.206-1.795,4-4,4V30H8v0.009c-2.206,0-4-1.794-4-4H3.982L4,26v-9c0-0.551,0.449-1,1-1h4c0.551,0,1,0.449,1,1v5
		c0,1.104,0.896,2,2,2h40c1.104,0,2-0.896,2-2v-5c0-0.551,0.449-1,1-1h4c0.551,0,1,0.449,1,1v9l0.018,0.009H60z"/>
</g>
<g id="Layer_1">
</g>
</svg>
