<?xml version="1.0" encoding="iso-8859-1"?>
<!-- Generator: Adobe Illustrator 16.0.0, SVG Export Plug-In . SVG Version: 6.00 Build 0)  -->
<!DOCTYPE svg PUBLIC "-//W3C//DTD SVG 1.1//EN" "http://www.w3.org/Graphics/SVG/1.1/DTD/svg11.dtd">
<svg version="1.1" xmlns="http://www.w3.org/2000/svg" xmlns:xlink="http://www.w3.org/1999/xlink" x="0px" y="0px" width="64px"
	 height="64px" viewBox="0 0 64 64" style="enable-background:new 0 0 64 64;" xml:space="preserve">
<g id="Layer_51">
	<g>
		<path d="M58,6H34V2c0-1.105-0.896-2-2-2s-2,0.895-2,2v4H6c-3.301,0-6,2.699-6,6v20c0,3.299,2.699,6,6,6h24v22h-7
			c-1.104,0-2,0.895-2,2c0,1.104,0.896,2,2,2h18c1.104,0,2-0.896,2-2c0-1.105-0.896-2-2-2h-7V38h24c3.299,0,6-2.701,6-6V12
			C64,8.699,61.299,6,58,6z M60,32c0,1.1-0.9,2-2,2H6c-1.1,0-2-0.9-2-2V12c0-1.1,0.9-2,2-2h52c1.1,0,2,0.9,2,2V32z"/>
		<path d="M17.021,19.021c0.679,0,1.485,0.215,2.42,0.643l0.827-2.084c-1.075-0.479-2.131-0.719-3.165-0.719
			c-1.171,0-2.092,0.258-2.762,0.773c-0.67,0.514-1.005,1.232-1.005,2.152c0,0.492,0.078,0.918,0.236,1.279
			c0.156,0.359,0.398,0.678,0.725,0.957c0.325,0.277,0.814,0.564,1.466,0.861c0.72,0.322,1.163,0.537,1.329,0.643
			c0.167,0.104,0.287,0.209,0.363,0.311c0.074,0.104,0.112,0.223,0.112,0.359c0,0.219-0.094,0.396-0.28,0.537
			c-0.187,0.139-0.48,0.207-0.882,0.207c-0.465,0-0.976-0.074-1.531-0.221c-0.556-0.148-1.092-0.355-1.606-0.619v2.406
			c0.487,0.232,0.957,0.395,1.408,0.488s1.01,0.141,1.675,0.141c0.798,0,1.492-0.133,2.085-0.4c0.593-0.266,1.046-0.641,1.36-1.121
			s0.472-1.031,0.472-1.65c0-0.676-0.168-1.234-0.502-1.678c-0.336-0.445-0.934-0.861-1.795-1.248
			c-0.897-0.41-1.448-0.693-1.65-0.848c-0.203-0.156-0.305-0.33-0.305-0.527c0-0.182,0.08-0.334,0.239-0.457
			S16.67,19.021,17.021,19.021z"/>
		<path d="M26.724,16.848c-1.586,0-2.795,0.439-3.626,1.316c-0.832,0.877-1.248,2.148-1.248,3.811c0,1.682,0.418,2.963,1.254,3.842
			c0.837,0.881,2.039,1.32,3.606,1.32c1.591,0,2.798-0.438,3.623-1.312s1.237-2.154,1.237-3.836c0-1.686-0.41-2.965-1.23-3.834
			C29.52,17.283,28.314,16.848,26.724,16.848z M28.23,24.184c-0.33,0.469-0.837,0.703-1.521,0.703c-1.345,0-2.017-0.965-2.017-2.898
			c0-1.949,0.677-2.926,2.03-2.926c0.665,0,1.165,0.238,1.501,0.715c0.334,0.477,0.502,1.213,0.502,2.211
			C28.727,22.982,28.562,23.713,28.23,24.184z"/>
		<polygon points="36.46,17.006 33.76,17.006 33.76,27 40.309,27 40.309,24.818 36.46,24.818 		"/>
		<path d="M45.612,17.006h-3.459V27h3.233c1.663,0,2.954-0.451,3.872-1.354c0.919-0.902,1.378-2.188,1.378-3.855
			c0-1.551-0.437-2.734-1.31-3.555C48.455,17.416,47.217,17.006,45.612,17.006z M47.26,24.07c-0.383,0.477-0.984,0.715-1.805,0.715
			h-0.602v-5.6h0.786c0.738,0,1.289,0.221,1.65,0.664c0.363,0.441,0.544,1.121,0.544,2.037C47.834,22.865,47.643,23.594,47.26,24.07
			z"/>
	</g>
</g>
<g id="Layer_1">
</g>
</svg>
