<?xml version="1.0" encoding="iso-8859-1"?>
<!-- Generator: Adobe Illustrator 16.0.0, SVG Export Plug-In . SVG Version: 6.00 Build 0)  -->
<!DOCTYPE svg PUBLIC "-//W3C//DTD SVG 1.1//EN" "http://www.w3.org/Graphics/SVG/1.1/DTD/svg11.dtd">
<svg version="1.1" xmlns="http://www.w3.org/2000/svg" xmlns:xlink="http://www.w3.org/1999/xlink" x="0px" y="0px" width="64px"
	 height="50px" viewBox="0 0 64 50" style="enable-background:new 0 0 64 50;" xml:space="preserve">
<g id="Layer_30">
	<g>
		<path d="M42,46c-1.271,0-2.318-0.703-3.646-1.593c-1.184-0.794-2.585-1.729-4.354-2.163V4h15c1.104,0,2-0.896,2-2s-0.896-2-2-2H15
			c-1.104,0-2,0.896-2,2s0.896,2,2,2h15v38.233c-1.926,0.447-3.523,1.458-4.871,2.312C23.951,45.294,22.837,46,22,46
			c-1.104,0-2,0.896-2,2s0.896,2,2,2c1.998,0,3.662-1.055,5.271-2.076c1.561-0.988,3.033-1.923,4.726-1.924c0.001,0,0.002,0,0.003,0
			s0.002,0,0.003,0c1.545,0.001,2.74,0.802,4.124,1.729C37.714,48.794,39.513,50,42,50c1.104,0,2-0.896,2-2S43.104,46,42,46z"/>
		<path d="M16,16H8c-2.205,0-4-1.795-4-4V6c0-1.104-0.896-2-2-2S0,4.896,0,6v6c0,4.411,3.589,8,8,8v26H6c-1.104,0-2,0.896-2,2
			s0.896,2,2,2h8c1.104,0,2-0.896,2-2s-0.896-2-2-2h-2V20h4c1.104,0,2-0.896,2-2S17.104,16,16,16z"/>
		<path d="M62,4c-1.104,0-2,0.896-2,2v6c0,2.205-1.795,4-4,4h-8c-1.104,0-2,0.896-2,2s0.896,2,2,2h4v26h-2c-1.104,0-2,0.896-2,2
			s0.896,2,2,2h8c1.104,0,2-0.896,2-2s-0.896-2-2-2h-2V20c4.411,0,8-3.589,8-8V6C64,4.896,63.104,4,62,4z"/>
	</g>
</g>
<g id="Layer_1">
</g>
</svg>
