<?xml version="1.0" encoding="iso-8859-1"?>
<!-- Generator: Adobe Illustrator 16.0.0, SVG Export Plug-In . SVG Version: 6.00 Build 0)  -->
<!DOCTYPE svg PUBLIC "-//W3C//DTD SVG 1.1//EN" "http://www.w3.org/Graphics/SVG/1.1/DTD/svg11.dtd">
<svg version="1.1" xmlns="http://www.w3.org/2000/svg" xmlns:xlink="http://www.w3.org/1999/xlink" x="0px" y="0px" width="64px"
	 height="50px" viewBox="0 0 64 50" style="enable-background:new 0 0 64 50;" xml:space="preserve">
<g id="Layer_31">
	<path d="M62,0H2C0.896,0,0,0.896,0,2v17c0,1.104,0.896,2,2,2c2.391,0,4.533-1.059,6-2.727C9.467,19.941,11.609,21,14,21
		s4.533-1.059,6-2.727C21.467,19.941,23.609,21,26,21c1.458,0,2.822-0.398,4-1.082v22.243c-2.485,0.374-4.553,1.368-6.416,2.276
		C21.865,45.275,20.381,46,19,46c-1.104,0-2,0.896-2,2s0.896,2,2,2c2.305,0,4.354-1,6.337-1.967c2.048-1,4.166-2.033,6.66-2.033H32
		c0.001,0,0.002,0,0.004,0c2.313,0,3.972,0.855,5.891,1.846C39.853,48.855,42.072,50,45,50c1.104,0,2-0.896,2-2s-0.896-2-2-2
		c-1.957,0-3.493-0.792-5.271-1.709c-1.632-0.842-3.442-1.764-5.729-2.126V19.918C35.178,20.602,36.542,21,38,21
		c2.391,0,4.533-1.059,6-2.727C45.467,19.941,47.609,21,50,21s4.533-1.059,6-2.727C57.467,19.941,59.609,21,62,21
		c1.104,0,2-0.896,2-2V2C64,0.896,63.104,0,62,0z M58,13c0-1.104-0.896-2-2-2s-2,0.896-2,2c0,2.205-1.795,4-4,4s-4-1.795-4-4
		c0-1.104-0.896-2-2-2s-2,0.896-2,2c0,2.205-1.795,4-4,4s-4-1.795-4-4c0-1.104-0.896-2-2-2s-2,0.896-2,2c0,2.205-1.795,4-4,4
		s-4-1.795-4-4c0-1.104-0.896-2-2-2s-2,0.896-2,2c0,2.205-1.795,4-4,4s-4-1.795-4-4c0-1.104-0.896-2-2-2s-2,0.896-2,2
		c0,1.474-0.811,2.75-2,3.443V4h56v12.443C58.811,15.75,58,14.474,58,13z"/>
</g>
<g id="Layer_1">
</g>
</svg>
