<?xml version="1.0" encoding="iso-8859-1"?>
<!-- Generator: Adobe Illustrator 16.0.0, SVG Export Plug-In . SVG Version: 6.00 Build 0)  -->
<!DOCTYPE svg PUBLIC "-//W3C//DTD SVG 1.1//EN" "http://www.w3.org/Graphics/SVG/1.1/DTD/svg11.dtd">
<svg version="1.1" xmlns="http://www.w3.org/2000/svg" xmlns:xlink="http://www.w3.org/1999/xlink" x="0px" y="0px" width="64px"
	 height="46px" viewBox="0 0 64 46" style="enable-background:new 0 0 64 46;" xml:space="preserve">
<g id="Layer_17">
	<g>
		<path d="M23,10c-7.168,0-13,5.832-13,13s5.832,13,13,13s13-5.832,13-13S30.168,10,23,10z M23,32c-4.963,0-9-4.037-9-9s4.037-9,9-9
			s9,4.037,9,9S27.963,32,23,32z"/>
		<path d="M62,36c-1.104,0-2,0.896-2,2v4H46V23C46,10.317,35.682,0,23,0S0,10.317,0,23s10.318,23,23,23h21h18c1.104,0,2-0.896,2-2
			v-6C64,36.896,63.104,36,62,36z M4,23C4,12.523,12.523,4,23,4s19,8.523,19,19v19H23C12.523,42,4,33.477,4,23z"/>
	</g>
</g>
<g id="Layer_1">
</g>
</svg>
