<?xml version="1.0" encoding="iso-8859-1"?>
<!-- Generator: Adobe Illustrator 16.0.0, SVG Export Plug-In . SVG Version: 6.00 Build 0)  -->
<!DOCTYPE svg PUBLIC "-//W3C//DTD SVG 1.1//EN" "http://www.w3.org/Graphics/SVG/1.1/DTD/svg11.dtd">
<svg version="1.1" xmlns="http://www.w3.org/2000/svg" xmlns:xlink="http://www.w3.org/1999/xlink" x="0px" y="0px" width="64px"
	 height="50px" viewBox="0 0 64 50" style="enable-background:new 0 0 64 50;" xml:space="preserve">
<g id="Layer_36">
	<g>
		<circle cx="50" cy="14" r="3"/>
		<path d="M50,0H14C6.28,0,0,6.279,0,14v34c0,1.104,0.896,2,2,2h36c1.104,0,2-0.896,2-2V23.779C42.543,26.379,46.084,28,50,28
			c7.72,0,14-6.281,14-14C64,6.279,57.72,0,50,0z M36,46H4V14C4,8.485,8.486,4,14,4h26.221C37.621,6.543,36,10.084,36,14V46z M50,24
			c-5.514,0-10-4.486-10-10c0-5.515,4.486-10,10-10s10,4.485,10,10C60,19.514,55.514,24,50,24z"/>
		<path d="M14,24c-1.11,0-2,0.889-2,2c0,1.1,0.89,2,2,2c1.1,0,2-0.9,2-2C16,24.889,15.1,24,14,24z"/>
		<path d="M32,24c-1.11,0-2,0.889-2,2c0,1.1,0.89,2,2,2c1.1,0,2-0.9,2-2C34,24.889,33.1,24,32,24z"/>
		<path d="M8,24c-1.11,0-2,0.889-2,2c0,1.1,0.89,2,2,2c1.1,0,2-0.9,2-2C10,24.889,9.1,24,8,24z"/>
		<path d="M20,24c-1.11,0-2,0.889-2,2c0,1.1,0.89,2,2,2c1.1,0,2-0.9,2-2C22,24.889,21.1,24,20,24z"/>
		<path d="M26,24c-1.11,0-2,0.889-2,2c0,1.1,0.89,2,2,2c1.1,0,2-0.9,2-2C28,24.889,27.1,24,26,24z"/>
	</g>
</g>
<g id="Layer_1">
</g>
</svg>
