<?xml version="1.0" encoding="iso-8859-1"?>
<!-- Generator: Adobe Illustrator 16.0.0, SVG Export Plug-In . SVG Version: 6.00 Build 0)  -->
<!DOCTYPE svg PUBLIC "-//W3C//DTD SVG 1.1//EN" "http://www.w3.org/Graphics/SVG/1.1/DTD/svg11.dtd">
<svg version="1.1" xmlns="http://www.w3.org/2000/svg" xmlns:xlink="http://www.w3.org/1999/xlink" x="0px" y="0px" width="64px"
	 height="64px" viewBox="0 0 64 64" style="enable-background:new 0 0 64 64;" xml:space="preserve">
<g id="Layer_41">
	<g>
		<circle cx="40" cy="50" r="2"/>
		<circle cx="24" cy="50" r="2"/>
		<path d="M62,40H41.388c-1.36-2.953-4.164-5.137-7.388-5.79V32h21c1.104,0,2-0.896,2-2V2c0-1.104-0.896-2-2-2H9
			C7.896,0,7,0.896,7,2v28c0,1.104,0.896,2,2,2h21v2.209c-3.225,0.654-6.029,2.838-7.389,5.791H2c-1.104,0-2,0.896-2,2v20
			c0,1.104,0.896,2,2,2s2-0.896,2-2v-2h56v2c0,1.104,0.896,2,2,2s2-0.896,2-2V42C64,40.896,63.104,40,62,40z M11,4h42v24H11V4z
			 M32,38c1.739,0,3.422,0.777,4.604,2h-9.208C28.577,38.777,30.26,38,32,38z M4,44h20h6v12H4V44z M34,56V44h6h20v12H34z"/>
		<path d="M40.707,7.222c-0.391-0.391-1.023-0.391-1.414,0L24.222,22.293c-0.391,0.391-0.391,1.023,0,1.414
			C24.417,23.902,24.673,24,24.929,24s0.512-0.098,0.707-0.293L40.707,8.636C41.098,8.245,41.098,7.612,40.707,7.222z"/>
		<path d="M32.929,23.929c0.256,0,0.512-0.098,0.707-0.293l7.071-7.071c0.391-0.391,0.391-1.023,0-1.414s-1.023-0.391-1.414,0
			l-7.071,7.071c-0.391,0.391-0.391,1.023,0,1.414C32.417,23.831,32.673,23.929,32.929,23.929z"/>
		<path d="M24.857,15.929c0.256,0,0.512-0.098,0.707-0.293l7.071-7.071c0.391-0.391,0.391-1.023,0-1.414s-1.023-0.391-1.414,0
			l-7.071,7.071c-0.391,0.391-0.391,1.023,0,1.414C24.346,15.831,24.602,15.929,24.857,15.929z"/>
	</g>
</g>
<g id="Layer_1">
</g>
</svg>
