<?xml version="1.0" encoding="iso-8859-1"?>
<!-- Generator: Adobe Illustrator 16.0.0, SVG Export Plug-In . SVG Version: 6.00 Build 0)  -->
<!DOCTYPE svg PUBLIC "-//W3C//DTD SVG 1.1//EN" "http://www.w3.org/Graphics/SVG/1.1/DTD/svg11.dtd">
<svg version="1.1" xmlns="http://www.w3.org/2000/svg" xmlns:xlink="http://www.w3.org/1999/xlink" x="0px" y="0px"
	 width="64.007px" height="44px" viewBox="0 0 64.007 44" style="enable-background:new 0 0 64.007 44;" xml:space="preserve">
<g id="Layer_57">
	<g>
		<path d="M3.421,12.852L9.923,6.35v3.203h0.001c0.001,1.105,0.896,2,2.001,2c1.103,0,1.998-0.896,1.999-2
			c0-0.002-0.001-0.006-0.001-0.01V2.01c0-0.002,0.001-0.006,0.001-0.01l0,0l0,0c0-1.104-0.896-2-1.999-2c-0.004,0-0.006,0-0.01,0
			H4.372c-1.105,0-2,0.896-2,2c-0.001,1.105,0.895,2,2,2h2.242l-6.021,6.021c-0.781,0.781-0.781,2.047,0.001,2.828
			C1.374,13.631,2.64,13.631,3.421,12.852z"/>
		<path d="M62.007,0.006H45.048C45.024,0.006,45.003,0,44.979,0c-1.105,0-2,0.895-2,2c0,0.002,0,0.002,0,0.004V14H31.075
			c-0.023-0.002-0.045-0.008-0.068-0.008c-0.556,0-1.057,0.227-1.42,0.592C29.225,14.947,29,15.447,29,16
			c0,0.023,0.006,0.045,0.007,0.068v10.924h-12c-1.105,0-2,0.895-2,2c0,0.002,0,0.002,0,0.004V40H2c-1.105,0-2,0.896-2,2
			c0,1.105,0.895,2,2,2c0.002,0,0.002,0,0.004,0h14.997c0.002,0,0.004,0,0.006,0c1.104,0,2-0.895,2-2V30.992
			c0,0,11.977,0.008,12,0.008c1.104,0,1.998-0.895,2-2V18h11.98c0.002,0,0.004,0,0.006,0c1.104,0,2-0.895,2-2
			c0-0.047-0.011-0.09-0.014-0.137V4.006h15.021c0.002,0,0.004,0,0.006,0c1.104,0,2-0.895,2-2
			C64.007,0.902,63.112,0.008,62.007,0.006z"/>
	</g>
</g>
<g id="Layer_1">
</g>
</svg>
